<svg width="19.981mm" height="18.658mm" version="1.1" viewBox="0 0 19.981 18.658" xmlns="http://www.w3.org/2000/svg">
 <g transform="translate(-66.009 -66.146)" fill="none" stroke="#000">
  <g stroke-width=".35333">
   <g transform="matrix(.75 0 0 .75 20.836 16.14)">
    <circle cx="70.115" cy="70.115" r="1.3229" stop-color="#000000" stroke-linecap="round" stroke-linejoin="round"/>
    <path d="m67.469 74.083s2.6458-5.2917 5.2917 0"/>
   </g>
   <g transform="matrix(.75 0 0 .75 16.867 20.108)">
    <circle cx="70.115" cy="70.115" r="1.3229" stop-color="#000000" stroke-linecap="round" stroke-linejoin="round"/>
    <path d="m67.469 74.083s2.6458-5.2917 5.2917 0"/>
   </g>
   <g transform="matrix(.75 0 0 .75 20.836 20.108)">
    <circle cx="70.115" cy="70.115" r="1.3229" stop-color="#000000" stroke-linecap="round" stroke-linejoin="round"/>
    <path d="m67.469 74.083s2.6458-5.2917 5.2917 0"/>
   </g>
   <g transform="matrix(.75 0 0 .75 24.805 20.108)">
    <circle cx="70.115" cy="70.115" r="1.3229" stop-color="#000000" stroke-linecap="round" stroke-linejoin="round"/>
    <path d="m67.469 74.083s2.6458-5.2917 5.2917 0"/>
   </g>
  </g>
  <rect x="72.76" y="75.671" width="6.6146" height="7.9375" stop-color="#000000" stroke-linecap="square" stroke-width=".5"/>
  <g stroke-width=".26458px">
   <path d="m74.083 76.994h3.9688"/>
   <path d="m74.083 78.317h3.9688"/>
   <path d="m74.083 79.64h3.9688"/>
  </g>
  <path d="m84.252 77.934c-0.1675-0.17023-0.44835-0.1624-0.65598-0.08961-0.13523 0.14653-0.27045 0.29306-0.40568 0.43959-0.07308-0.06744-0.14617-0.13489-0.21925-0.20234-0.23255 0.24528-0.46505 0.4906-0.69758 0.7359 0.07044 0.065 0.14089 0.13002 0.21134 0.19503 0.14166-0.14154 0.28332-0.28309 0.42498-0.42464-0.69194 0.74979-1.3839 1.4996-2.0758 2.2494-0.10803 0.36902-0.21178 0.7394-0.32679 1.1063 0.35905-0.13794 0.71811-0.27589 1.0772-0.41383 0.92331-1.0005 1.8466-2.001 2.7699-3.0015 0.03109-0.19936 0.04173-0.43398-0.10231-0.59429z" stroke-linecap="round" stroke-linejoin="round" stroke-width=".265"/>
  <g transform="matrix(.75 0 0 .75 17.943 24.658)" stroke-width=".35333">
   <circle cx="70.115" cy="70.115" r="1.3229" stop-color="#000000" stroke-linecap="round" stroke-linejoin="round"/>
   <path d="m67.469 74.083s2.6458-5.2917 5.2917 0"/>
  </g>
 </g>
</svg>
